<svg xmlns="http://www.w3.org/2000/svg" width="78" height="85"><path fill-rule="evenodd" fill="#E60012" d="M59.904 84.999H45.526a.426.426 0 0 1-.428-.424V.425c0-.235.192-.426.428-.426H59.91c9.987 0 18.084 8.053 18.084 17.986V67.01c0 9.935-8.099 17.989-18.09 17.989zm1.645-27.277c4.176 0 7.562-3.365 7.562-7.521s-3.386-7.52-7.562-7.52c-4.178 0-7.565 3.364-7.565 7.52s3.387 7.521 7.565 7.521zm-7.252-37.967a3.413 3.413 0 0 0-3.419 3.405c0 1.872 1.532 3.396 3.419 3.396 1.89 0 3.419-1.524 3.419-3.396a3.41 3.41 0 0 0-3.419-3.405zm7.252-7.214a3.406 3.406 0 0 0-3.416 3.4 3.41 3.41 0 0 0 3.416 3.401c1.89 0 3.422-1.524 3.422-3.401 0-1.88-1.532-3.4-3.422-3.4zm0 14.427a3.409 3.409 0 0 0-3.416 3.4 3.41 3.41 0 0 0 3.416 3.401c1.89 0 3.422-1.524 3.422-3.401 0-1.876-1.532-3.4-3.422-3.4zm7.255-7.209a3.41 3.41 0 0 0-3.419 3.401c0 1.871 1.531 3.394 3.419 3.394 1.885 0 3.416-1.523 3.416-3.394a3.41 3.41 0 0 0-3.416-3.401zm-36.315 65.24H18.111C8.12 84.999.021 76.945.021 67.01V17.985C.021 8.052 8.118-.001 18.105-.001h14.384c.236 0 .427.191.427.426v84.15a.426.426 0 0 1-.427.424zM16.464 58.692c1.89 0 3.422-1.523 3.422-3.4 0-1.876-1.532-3.401-3.422-3.401a3.41 3.41 0 0 0-3.416 3.401c0 1.877 1.529 3.4 3.416 3.4zm0-14.427c1.89 0 3.422-1.523 3.422-3.4 0-1.88-1.532-3.401-3.422-3.401a3.407 3.407 0 0 0-3.416 3.401c0 1.877 1.529 3.4 3.416 3.4zM5.793 48.083c0 1.873 1.532 3.397 3.419 3.397 1.89 0 3.419-1.524 3.419-3.397a3.41 3.41 0 0 0-3.419-3.403 3.411 3.411 0 0 0-3.419 3.403zm10.674-34.571c-4.178 0-7.565 3.365-7.565 7.521 0 4.151 3.387 7.517 7.565 7.517 4.176 0 7.562-3.366 7.562-7.517 0-4.156-3.386-7.521-7.562-7.521zm7.253 31.171c-1.889 0-3.42 1.522-3.42 3.4 0 1.872 1.531 3.395 3.42 3.395 1.884 0 3.415-1.523 3.415-3.395 0-1.878-1.531-3.4-3.415-3.4z"/></svg>